# Blender v2.79 (sub 0) OBJ File: ''
# www.blender.org
mtllib brick_1x1_2.mtl
o 3005.006
v -0.300000 0.235530 -0.300000
v 0.300000 0.235530 -0.300000
v 0.300000 0.235530 0.300000
v -0.300000 0.235530 0.300000
v -0.300000 -0.478755 -0.300000
v 0.300000 -0.478755 -0.300000
v -0.300000 -0.478755 0.300000
v 0.300000 -0.478755 0.300000
v 0.500000 -0.478755 -0.500000
v -0.500000 -0.478755 -0.500000
v -0.500000 -0.478755 0.500000
v 0.500000 -0.478755 0.500000
v 0.500000 0.521288 0.500000
v 0.500000 0.521288 -0.500000
v -0.500000 0.521288 0.500000
v -0.500000 0.521288 -0.500000
v 0.300000 0.664145 0.000000
v 0.300000 0.521288 0.000000
v 0.277164 0.521288 -0.114805
v 0.277164 0.664145 -0.114805
v 0.212132 0.521288 -0.212132
v 0.212132 0.664145 -0.212132
v 0.114805 0.521288 -0.277163
v 0.114805 0.664145 -0.277163
v 0.000000 0.521288 -0.300000
v 0.000000 0.664145 -0.300000
v -0.114805 0.521288 -0.277163
v -0.114805 0.664145 -0.277163
v -0.212133 0.521288 -0.212132
v -0.212133 0.664145 -0.212132
v -0.277164 0.521288 -0.114805
v -0.277164 0.664145 -0.114805
v -0.300000 0.521288 0.000000
v -0.300000 0.664145 0.000000
v -0.277164 0.521288 0.114805
v -0.277164 0.664145 0.114805
v -0.212133 0.521288 0.212133
v -0.212133 0.664145 0.212133
v -0.114805 0.521288 0.277164
v -0.114805 0.664145 0.277164
v 0.000000 0.521288 0.300000
v 0.000000 0.664145 0.300000
v 0.114805 0.521288 0.277164
v 0.114805 0.664145 0.277164
v 0.212132 0.521288 0.212133
v 0.212132 0.664145 0.212133
v 0.277164 0.521288 0.114805
v 0.277164 0.664145 0.114805
v 0.000000 0.664145 0.000000
vn 0.0000 -1.0000 -0.0000
vn 0.0000 -0.0000 1.0000
vn 1.0000 0.0000 0.0000
vn 0.0000 0.0000 -1.0000
vn -1.0000 -0.0000 0.0000
vn 0.0000 1.0000 0.0000
vn 0.9808 0.0000 -0.1951
vn 0.8315 0.0000 -0.5556
vn 0.5556 0.0000 -0.8315
vn 0.1951 0.0000 -0.9808
vn -0.1951 0.0000 -0.9808
vn -0.5556 0.0000 -0.8315
vn -0.8315 0.0000 -0.5556
vn -0.9808 0.0000 -0.1951
vn -0.9808 0.0000 0.1951
vn -0.8315 0.0000 0.5556
vn -0.5556 -0.0000 0.8315
vn -0.1951 -0.0000 0.9808
vn 0.1951 -0.0000 0.9808
vn 0.5556 -0.0000 0.8315
vn 0.8315 0.0000 0.5556
vn 0.9808 0.0000 0.1951
usemtl None.004
s 1
f 1//1 2//1 3//1
f 1//1 3//1 4//1
f 1//2 5//2 6//2
f 1//2 6//2 2//2
f 4//3 7//3 5//3
f 4//3 5//3 1//3
f 3//4 8//4 7//4
f 3//4 7//4 4//4
f 2//5 6//5 8//5
f 2//5 8//5 3//5
f 9//1 6//1 5//1
f 9//1 5//1 10//1
f 10//1 5//1 7//1
f 10//1 7//1 11//1
f 11//1 7//1 8//1
f 11//1 8//1 12//1
f 12//1 8//1 6//1
f 12//1 6//1 9//1
f 13//3 12//3 9//3
f 13//3 9//3 14//3
f 15//2 11//2 12//2
f 15//2 12//2 13//2
f 16//5 10//5 11//5
f 16//5 11//5 15//5
f 14//4 9//4 10//4
f 14//4 10//4 16//4
f 15//6 13//6 14//6
f 15//6 14//6 16//6
f 17//7 18//7 19//7
f 17//7 19//7 20//7
f 20//8 19//8 21//8
f 20//8 21//8 22//8
f 22//9 21//9 23//9
f 22//9 23//9 24//9
f 24//10 23//10 25//10
f 24//10 25//10 26//10
f 26//11 25//11 27//11
f 26//11 27//11 28//11
f 28//12 27//12 29//12
f 28//12 29//12 30//12
f 30//13 29//13 31//13
f 30//13 31//13 32//13
f 32//14 31//14 33//14
f 32//14 33//14 34//14
f 34//15 33//15 35//15
f 34//15 35//15 36//15
f 36//16 35//16 37//16
f 36//16 37//16 38//16
f 38//17 37//17 39//17
f 38//17 39//17 40//17
f 40//18 39//18 41//18
f 40//18 41//18 42//18
f 42//19 41//19 43//19
f 42//19 43//19 44//19
f 44//20 43//20 45//20
f 44//20 45//20 46//20
f 46//21 45//21 47//21
f 46//21 47//21 48//21
f 48//22 47//22 18//22
f 48//22 18//22 17//22
f 49//6 17//6 20//6
f 49//6 20//6 22//6
f 49//6 22//6 24//6
f 49//6 24//6 26//6
f 49//6 26//6 28//6
f 49//6 28//6 30//6
f 49//6 30//6 32//6
f 49//6 32//6 34//6
f 49//6 34//6 36//6
f 49//6 36//6 38//6
f 49//6 38//6 40//6
f 49//6 40//6 42//6
f 49//6 42//6 44//6
f 49//6 44//6 46//6
f 49//6 46//6 48//6
f 49//6 48//6 17//6
